# xmcd
#
# Track frame offsets: 
#        150
#        9932
#        21160
#        32790
#        43702
#        65260
#        80325
#        99900
#        109440
#        129372
#        152962
#        164315
#        179672
#        189510
#        203795
#        218510
#        231972
#        243210
#        253467
#
# Disc length: 3559 seconds
#
# Revision: 0
# Processed by: cddbd v1.5.2PL0 Copyright (c) Steve Scherf et al.
# Submitted via: ExactAudioCopy v1.0b3
#
DISCID=fe0de513
DTITLE=Various Artist - The Dance Sounds of Hi
DYEAR=1993
DGENRE=Soul
TTITLE0=Willie Mitchell and the Four Kings - That Drivin' Beat
TTITLE1=Charlie Rich - Love is After Me
TTITLE2=Don Bryant - Doin' the Mustang
TTITLE3=Willie Mitchell and the Four Kings - Everything is Gonna Be Alri
TTITLE3=ght
TTITLE4=Syl Johnson - Let's Dance for Love
TTITLE5=Otis Clay - Slow and Easy
TTITLE6=Al Green - Love Ritual
TTITLE7=Willie Mitchell - The Crawl
TTITLE8=O.V.Wright - Into Something (Can't Shake Loose)
TTITLE9=Al Green - Full of Fire
TTITLE10=Willie Mitchell - The Horse
TTITLE11=Majik - Dance, Dance, Dance
TTITLE12=Don Bryant - Land of 1000 Dances
TTITLE13=Ann Peebles - Doctor Love Power
TTITLE14=Quiet Elegance - Something You Got (Sho Nuff Makes Me Hot)
TTITLE15=Otis Clay - Pussy-Footing Around
TTITLE16=Don Bryant - Funky Broadway
TTITLE17=Willie Mitchell - The Champion
TTITLE18=Bobo Mr. Soul - Hitch-Hike to Heartbreak Road
EXTD=
EXTT0=
EXTT1=
EXTT2=
EXTT3=
EXTT4=
EXTT5=
EXTT6=
EXTT7=
EXTT8=
EXTT9=
EXTT10=
EXTT11=
EXTT12=
EXTT13=
EXTT14=
EXTT15=
EXTT16=
EXTT17=
EXTT18=
PLAYORDER=
